<?xml version="1.0" standalone="no"?><svg xmlns="http://www.w3.org/2000/svg" viewBox="0 0 1440 320"><path fill="#0099ff" fill-opacity="1" d="M0,256L24,240C48,224,96,192,144,186.7C192,181,240,203,288,229.3C336,256,384,288,432,261.3C480,235,528,149,576,138.7C624,128,672,192,720,181.3C768,171,816,85,864,64C912,43,960,85,1008,101.3C1056,117,1104,107,1152,90.7C1200,75,1248,53,1296,37.3C1344,21,1392,11,1416,5.3L1440,0L1440,320L1416,320C1392,320,1344,320,1296,320C1248,320,1200,320,1152,320C1104,320,1056,320,1008,320C960,320,912,320,864,320C816,320,768,320,720,320C672,320,624,320,576,320C528,320,480,320,432,320C384,320,336,320,288,320C240,320,192,320,144,320C96,320,48,320,24,320L0,320Z"></path></svg>