<?xml version="1.0" standalone="no"?><svg xmlns="http://www.w3.org/2000/svg" viewBox="0 0 1440 320"><path fill="#ff5500" fill-opacity="0.8" d="M0,128L8,117.3C16,107,32,85,48,112C64,139,80,213,96,224C112,235,128,181,144,181.3C160,181,176,235,192,245.3C208,256,224,224,240,208C256,192,272,192,288,170.7C304,149,320,107,336,74.7C352,43,368,21,384,64C400,107,416,213,432,245.3C448,277,464,235,480,208C496,181,512,171,528,181.3C544,192,560,224,576,208C592,192,608,128,624,96C640,64,656,64,672,90.7C688,117,704,171,720,186.7C736,203,752,181,768,165.3C784,149,800,139,816,112C832,85,848,43,864,64C880,85,896,171,912,202.7C928,235,944,213,960,192C976,171,992,149,1008,160C1024,171,1040,213,1056,229.3C1072,245,1088,235,1104,224C1120,213,1136,203,1152,197.3C1168,192,1184,192,1200,202.7C1216,213,1232,235,1248,245.3C1264,256,1280,256,1296,218.7C1312,181,1328,107,1344,101.3C1360,96,1376,160,1392,181.3C1408,203,1424,181,1432,170.7L1440,160L1440,320L1432,320C1424,320,1408,320,1392,320C1376,320,1360,320,1344,320C1328,320,1312,320,1296,320C1280,320,1264,320,1248,320C1232,320,1216,320,1200,320C1184,320,1168,320,1152,320C1136,320,1120,320,1104,320C1088,320,1072,320,1056,320C1040,320,1024,320,1008,320C992,320,976,320,960,320C944,320,928,320,912,320C896,320,880,320,864,320C848,320,832,320,816,320C800,320,784,320,768,320C752,320,736,320,720,320C704,320,688,320,672,320C656,320,640,320,624,320C608,320,592,320,576,320C560,320,544,320,528,320C512,320,496,320,480,320C464,320,448,320,432,320C416,320,400,320,384,320C368,320,352,320,336,320C320,320,304,320,288,320C272,320,256,320,240,320C224,320,208,320,192,320C176,320,160,320,144,320C128,320,112,320,96,320C80,320,64,320,48,320C32,320,16,320,8,320L0,320Z"></path></svg>